<svg width="36" height="36" viewBox="0 0 36 36" fill="none" xmlns="http://www.w3.org/2000/svg">
<path fill-rule="evenodd" clip-rule="evenodd" d="M0.529419 3.4486C0.529419 2.67439 0.836975 1.93188 1.38443 1.38443C1.93188 0.836978 2.67438 0.529423 3.4486 0.529423H32.5482C32.9319 0.528796 33.312 0.603852 33.6666 0.750293C34.0212 0.896735 34.3435 1.11169 34.6149 1.38284C34.8864 1.65399 35.1017 1.97602 35.2485 2.3305C35.3953 2.68497 35.4708 3.06492 35.4706 3.4486V32.5482C35.471 32.932 35.3958 33.3121 35.2491 33.6667C35.1025 34.0214 34.8874 34.3436 34.6162 34.615C34.3449 34.8865 34.0227 35.1017 33.6682 35.2485C33.3136 35.3954 32.9336 35.4708 32.5498 35.4706H3.4486C3.06511 35.4706 2.68538 35.395 2.33111 35.2482C1.97683 35.1014 1.65496 34.8863 1.38386 34.615C1.11277 34.3438 0.897781 34.0218 0.751172 33.6674C0.604564 33.3131 0.529211 32.9333 0.529419 32.5498V3.4486ZM14.3598 13.8515H19.0911V16.2275C19.7741 14.8617 21.5211 13.6324 24.1465 13.6324C29.1796 13.6324 30.3724 16.353 30.3724 21.3448V30.5915H25.2789V22.482C25.2789 19.6391 24.5959 18.035 22.8616 18.035C20.4554 18.035 19.4548 19.7645 19.4548 22.482V30.5915H14.3598V13.8515ZM5.62448 30.374H10.7195V13.6324H5.62448V30.3724V30.374ZM11.4485 8.17201C11.4581 8.60826 11.3805 9.04203 11.2202 9.44786C11.0599 9.8537 10.8202 10.2234 10.515 10.5354C10.2099 10.8473 9.84553 11.0951 9.44332 11.2643C9.04111 11.4335 8.60915 11.5207 8.1728 11.5207C7.73645 11.5207 7.3045 11.4335 6.90229 11.2643C6.50008 11.0951 6.13571 10.8473 5.83058 10.5354C5.52545 10.2234 5.2857 9.8537 5.12539 9.44786C4.96509 9.04203 4.88746 8.60826 4.89707 8.17201C4.91592 7.31572 5.26933 6.50086 5.88159 5.90192C6.49386 5.30299 7.31631 4.96762 8.1728 4.96762C9.0293 4.96762 9.85175 5.30299 10.464 5.90192C11.0763 6.50086 11.4297 7.31572 11.4485 8.17201Z" fill="black"/>
</svg>
