<svg width="36" height="36" viewBox="0 0 36 36" fill="none" xmlns="http://www.w3.org/2000/svg">
<path d="M34.3875 0.1875H1.6125C0.824297 0.1875 0.1875 0.824297 0.1875 1.6125V34.3875C0.1875 35.1757 0.824297 35.8125 1.6125 35.8125H34.3875C35.1757 35.8125 35.8125 35.1757 35.8125 34.3875V1.6125C35.8125 0.824297 35.1757 0.1875 34.3875 0.1875ZM21.852 10.826H28.0151V12.3267H21.852V10.826ZM18 23.2012C17.7117 23.7484 17.3001 24.2211 16.7977 24.5817C16.2722 24.9469 15.6888 25.2141 15.0698 25.3699C14.4222 25.5435 13.7542 25.6288 13.0837 25.6237H5.70937V10.4341H12.8789C13.6048 10.4341 14.2638 10.5009 14.865 10.6256C15.4617 10.7503 15.9694 10.9641 16.3969 11.2535C16.8199 11.543 17.1539 11.9304 17.3899 12.4113C17.6215 12.8878 17.7417 13.4845 17.7417 14.1926C17.7417 14.9585 17.568 15.5909 17.2207 16.103C16.8689 16.6151 16.3612 17.0292 15.671 17.3543C16.6106 17.6215 17.3009 18.098 17.7551 18.7659C18.2182 19.4428 18.4453 20.2533 18.4453 21.2062C18.4453 21.9811 18.2984 22.6446 18 23.2012ZM30.4153 20.85H22.4709C22.4709 21.7139 22.7693 22.5422 23.2191 22.9875C23.6733 23.4284 24.3234 23.651 25.174 23.651C25.7885 23.651 26.3095 23.4952 26.7548 23.1879C27.1957 22.8806 27.4629 22.5555 27.5609 22.2171H30.2238C29.7963 23.5397 29.1462 24.4837 28.2645 25.0538C27.3916 25.6238 26.3229 25.9087 25.0805 25.9087C24.2121 25.9087 23.4328 25.7662 22.7337 25.4946C22.0612 25.2319 21.4556 24.8311 20.9569 24.3145C20.4651 23.784 20.085 23.1601 19.8391 22.4798C19.5675 21.7273 19.4339 20.9346 19.4428 20.1375C19.4428 19.3137 19.5809 18.5477 19.848 17.8352C20.3602 16.4503 21.4245 15.3415 22.7827 14.767C23.5085 14.4642 24.2878 14.3128 25.076 14.3217C26.0112 14.3217 26.8216 14.4998 27.5252 14.865C28.2026 15.2137 28.7907 15.7134 29.2441 16.3256C29.6939 16.9357 30.0101 17.6304 30.2105 18.4141C30.402 19.1845 30.4687 19.995 30.4153 20.85ZM24.9825 16.5928C24.5016 16.5928 24.0963 16.6774 23.7846 16.8422C23.4729 17.007 23.2146 17.2118 23.0187 17.4478C22.8321 17.6757 22.6942 17.9394 22.6134 18.2227C22.5422 18.4587 22.4932 18.6991 22.4754 18.9441H27.3961C27.3248 18.1737 27.0577 17.6037 26.7014 17.2029C26.3273 16.8066 25.7262 16.5928 24.9825 16.5928ZM13.9165 16.143C14.3039 15.8625 14.4909 15.3994 14.4909 14.7626C14.5043 14.4598 14.442 14.1614 14.3084 13.8898C14.1881 13.6716 14.01 13.489 13.7918 13.3598C13.5655 13.2226 13.3143 13.1318 13.0526 13.0927C12.7676 13.0392 12.4781 13.0125 12.1931 13.017H9.06258V16.5661H12.4514C13.0348 16.5705 13.5291 16.428 13.9165 16.143ZM14.442 19.3493C14.0055 19.0153 13.4222 18.8505 12.6963 18.8505H9.05367V23.0365H12.6251C12.9591 23.0365 13.2663 23.0053 13.5647 22.943C13.863 22.8806 14.1302 22.7737 14.3573 22.6223C14.5845 22.4754 14.767 22.275 14.9051 22.0167C15.0387 21.7584 15.1055 21.4289 15.1055 21.0326C15.1055 20.2444 14.8828 19.6877 14.442 19.3493Z" fill="black"/>
</svg>
